<svg xmlns="http://www.w3.org/2000/svg" version="1.1" xmlns:xlink="http://www.w3.org/1999/xlink" width="200" height="200"><svg xmlns="http://www.w3.org/2000/svg" version="1.1" xmlns:xlink="http://www.w3.org/1999/xlink" viewBox="0 0 200 200"><rect width="200" height="200" fill="url('#gradient')"></rect><defs><linearGradient id="SvgjsLinearGradient1001" gradientTransform="rotate(45 0.5 0.5)"><stop offset="0%" stop-color="#180ce8"></stop><stop offset="100%" stop-color="#5342e3"></stop></linearGradient></defs><g><g fill="#e7e7e7" transform="matrix(3.57355615630376,0,0,3.57355615630376,25.167348979696598,125.40735961492655)" stroke="#0e5278" stroke-width="0.4"><path d="M5.75 0L1.07 0L1.07-14.22L5.65-14.22Q7.54-14.22 9.04-13.36Q10.55-12.51 11.39-10.95Q12.24-9.39 12.25-7.46L12.25-7.46L12.25-6.81Q12.25-4.85 11.42-3.31Q10.60-1.76 9.10-0.88Q7.60-0.01 5.75 0L5.75 0ZM5.65-11.57L4.50-11.57L4.50-2.64L5.69-2.64Q7.17-2.64 7.96-3.69Q8.75-4.74 8.75-6.81L8.75-6.81L8.75-7.42Q8.75-9.48 7.96-10.53Q7.17-11.57 5.65-11.57L5.65-11.57ZM25.88-14.22L25.88 0L22.47 0L17.43-8.85L17.43 0L14.00 0L14.00-14.22L17.43-14.22L22.46-5.37L22.46-14.22L25.88-14.22ZM37.13 0L36.30-2.66L31.60-2.66L30.78 0L27.12 0L32.33-14.22L35.56-14.22L40.81 0L37.13 0ZM33.95-10.23L32.42-5.30L35.48-5.30L33.95-10.23Z"></path></g></g></svg><style>@media (prefers-color-scheme: light) { :root { filter: none; } }
@media (prefers-color-scheme: dark) { :root { filter: none; } }
</style></svg>